<svg xmlns="http://www.w3.org/2000/svg" viewBox="0 0 256 192" clip-path="url(#a)" width="512" height="384"><defs><clipPath id="a" clipPathUnits="objectBoundingBox"><path d="M0 0h256v192H0z"/></clipPath></defs><path fill="#635F5C" d="M0 0h256v192H0z"/><path d="M162-244l129 376-333-57z" fill="#90C8DD" fill-opacity=".77"/><path d="M-14 402L3 82l269 78z" fill="#2E0D00" fill-opacity=".68"/><path d="M114 61l-7-45-140-8z" fill="#15D7F8" fill-opacity=".92"/><path d="M69 147l47 15-13-34z" fill="#CCB887" fill-opacity=".6"/><path d="M-18-199L89 18l164-9z" fill="#31111A" fill-opacity=".39"/><path d="M214 143l-47-32 10-46z" fill="#2F150D" fill-opacity=".57"/><path d="M20 108l40-53L-45-9z" fill="#FFEFFF" fill-opacity=".29"/><path d="M264 152l-8-101-52 89z" fill="#BDB19D" fill-opacity=".73"/><path d="M149 19l28 115-77-51z" fill="#D6EEFE" fill-opacity=".49"/><path d="M179 156l3-59-11 2z" fill="#0E0D10" fill-opacity=".76"/><path d="M143 151l-19-22 20-4z" fill="#FFFFD5" fill-opacity=".42"/><path d="M68 129l42-22-7-32z" fill="#B6CFF0" fill-opacity=".39"/><path d="M183 123l60-26 6-112z" fill="#CFF8FA" fill-opacity=".38"/><path d="M165 73l11 9 8-18z" fill="#611608" fill-opacity=".43"/><path d="M137-20L86 6l22 11z" fill="#00000F" fill-opacity=".46"/><path d="M164 179l46-73-2 66z" fill="#100" fill-opacity=".53"/><path d="M60 11L4 8l15-153z" fill="#261732" fill-opacity=".43"/><path d="M157 123l-52 5 33-17z" fill="#050405" fill-opacity=".74"/><path d="M77 77l10-28 6 32z" fill="#001D41" fill-opacity=".66"/><path d="M121 119l-2-59 32 33z" fill="#A4C8E1" fill-opacity=".78"/><path d="M121 42l-47 4 36 40z" fill="#59C6FA" fill-opacity=".65"/><path d="M122 100l-5 22-12-24z" fill="#0F0001" fill-opacity=".47"/><path d="M114 160l32-23-6 35z" fill="#878C57" fill-opacity=".41"/><path d="M32 101l-10-6v9z" fill="#FDF0DB" fill-opacity=".49"/><path d="M156 128l4-9 13 13z" fill="#F6FFFF" fill-opacity=".38"/><path d="M219 125l-35-26 117 30z" fill="#AEA292" fill-opacity=".83"/><path d="M124 122l-72-2 64 20z" fill="#1A0600" fill-opacity=".51"/><path d="M237 184l32 17 15-64z" fill="#897347" fill-opacity=".63"/><path d="M32 28L-74 4 1 90z" fill="#CCF0FF" fill-opacity=".41"/><path d="M80 59l1 20 17-10z" fill="#000E28" fill-opacity=".53"/><path d="M80-1L32 11l55 7z" fill="#275A8F" fill-opacity=".46"/><path d="M148 113l12 1-11 33z" fill="#170C06" fill-opacity=".74"/><path d="M70 128l15 33 31-14z" fill="#FFFFC7" fill-opacity=".25"/><path d="M179 143l32 67 51-51z" fill="#1E0001" fill-opacity=".66"/><path d="M156 228L39 195l46-38z" fill="#030603" fill-opacity=".73"/><path d="M252-30L426 91l-185 27z" fill="#A49582" fill-opacity=".75"/><path d="M27 134l-17 16 32 1z" fill="#AF3324" fill-opacity=".43"/><path d="M42 101L17 70 6 93z" fill="#624142" fill-opacity=".47"/><path d="M109 117l-25-16 28-1z" fill="#88B4D8" fill-opacity=".6"/><path d="M99 12l79 2-67 19z" fill="#717B9A" fill-opacity=".55"/><path d="M121 130l8-6 20 16z" fill="#FBE0BA" fill-opacity=".51"/><path d="M53 143l30 8-14-29z" fill="#535448" fill-opacity=".62"/><path d="M221 27l-14 80-65-87z" fill="#AAAFB2" fill-opacity=".91"/><path d="M5 118L-6 95l18 13z" fill="#939484" fill-opacity=".37"/><path d="M130 34l24-11-7 84z" fill="#C5FAFF" fill-opacity=".67"/><path d="M187 20l-19 35-11-31z" fill="#A7DFFB" fill-opacity=".49"/><path d="M156 96l22-34-25-24z" fill="#C0A19E" fill-opacity=".47"/><path d="M146 25L252 8l-24-35z" fill="#8F8985" fill-opacity=".82"/><path d="M170 143l20-21 9 20z" fill="#867E6E" fill-opacity=".45"/><path d="M239 120l-28-43 33-19z" fill="#A8E6FA" fill-opacity=".46"/></svg>